<svg xmlns="http://www.w3.org/2000/svg"
shape-rendering="geometricPrecision"
width="4000" height="4000" viewBox="0 0 643 643">
  <metadata>null</metadata>

<path d="
M 29.433 403.097
C 30.233 398.756 31.413 394.686 33.652 390.844
C 40.288 379.458 53.701 373.936 66.45 375.959
C 72.436 376.909 77.647 379.531 82.177 383.501
C 83.14 384.346 85.658 386.045 85.932 387.31
C 84.583 388.867 82.949 390.229 81.453 391.644
C 80.787 392.274 80.061 393.37 79.27 393.801
C 73.555 387.996 67.103 383.817 58.509 384.887
C 41.887 386.957 33.104 406.793 42.945 420.44
C 50.348 430.704 66.72 433.465 75.693 423.518
C 77.636 421.366 80.173 418.142 80.204 415.1
C 73.423 415.229 66.577 414.739 59.781 414.717
C 59.356 411.794 59.684 408.605 59.603 405.649
C 66.706 404.677 74.342 405.367 81.505 405.391
C 83.981 405.399 88.233 404.657 90.466 405.757
C 90.87 409.899 90.367 414.671 89.079 418.632
C 87.988 421.988 86.461 424.865 84.253 427.612
C 71.505 443.473 46.643 442.019 34.857 425.828
C 32.876 423.106 31.376 420.101 30.468 416.855
C 29.215 412.377 28.795 407.711 29.433 403.097 Z"
opacity="1" fill="rgb(30,101,65)" fill-rule="evenodd" />
<path d="
M 98.648 396.706
C 101.466 396.694 104.406 396.861 107.214 396.666
C 107.237 397.875 107.247 399.082 107.278 400.291
C 107.61 400.796 108.334 399.8 108.677 399.488
C 109.909 398.365 111.109 397.356 112.626 396.62
C 116.292 394.841 121.837 394.622 124.999 397.501
C 124.457 399.556 122.759 401.517 121.715 403.375
C 121.586 403.605 120.92 405.347 120.723 405.302
C 119.949 404.239 118.48 404.084 117.268 404.075
C 113.612 404.049 110.96 406.243 109.384 409.416
C 107.455 413.3 107.827 417.794 107.819 422.001
C 107.808 427.235 107.343 432.647 107.749 437.862
C 104.869 438.154 101.872 437.837 98.975 437.966
C 98.25 424.351 98.183 410.334 98.648 396.706 Z"
opacity="1" fill="rgb(28,102,64)" fill-rule="evenodd" />
<path d="
M 126.453 413.091
C 128.498 400.638 142.834 392.158 154.84 396.194
C 165.419 399.749 171.712 409.899 170.066 420.928
C 169.696 423.404 168.841 425.903 167.554 428.053
C 157.921 444.151 132.232 441.225 126.956 423.073
C 126.032 419.892 125.918 416.349 126.453 413.091 Z
M 135.401 415.603
C 134.498 423.33 141.116 430.684 148.918 430.335
C 151.59 430.216 153.692 429.194 155.867 427.721
C 157.326 426.734 158.476 425.457 159.373 423.944
C 160.28 422.413 160.86 420.718 161.084 418.952
C 162.417 408.44 150.636 399.912 141.367 405.938
C 139.696 407.025 138.301 408.601 137.273 410.298
C 136.301 411.902 135.62 413.731 135.401 415.603 Z"
opacity="1" fill="rgb(30,102,67)" fill-rule="evenodd" />
<path d="
M 147.428 235.098
C 147.915 232.655 148.152 228.655 150.138 226.954
C 175.78 226.341 201.32 227.363 226.928 228.376
C 233.28 228.627 239.585 229.371 245.921 229.785
C 247.731 229.903 249.526 230.041 251.322 230.3
C 251.918 230.386 252.895 230.373 253.336 230.832
C 253.345 231.015 252.605 231.199 252.473 231.235
C 251.355 231.546 250.145 231.676 248.994 231.826
C 244.014 232.474 239.063 233.291 234.063 233.791
C 219.008 235.295 203.908 236.719 188.886 238.525
C 184.79 239.017 180.647 239.35 176.54 239.631
C 174.62 239.762 172.242 239.538 170.489 240.365
C 169.499 240.809 172.574 240.785 173.008 240.804
C 174.81 240.886 176.577 241.19 178.371 241.268
C 183.819 241.502 189.263 242.02 194.715 242.311
C 209.184 243.082 223.909 243.989 238.304 245.659
C 241.849 246.07 245.407 246.358 248.956 246.709
C 249.675 246.78 251.98 246.768 252.467 247.374
C 253.083 248.14 248.81 248.552 248.169 248.663
C 243.732 249.429 239.15 249.631 234.67 250.091
C 219.484 251.647 204.259 252.747 189.062 254.136
C 185.637 254.449 182.177 254.498 178.771 255.011
C 178.411 255.065 175.446 255.318 175.499 255.889
C 175.524 256.158 176.583 256.122 176.711 256.128
C 177.747 256.17 178.777 256.279 179.812 256.318
C 184.547 256.493 189.305 257.224 194.026 257.635
C 208.369 258.884 222.732 260.099 237.041 261.643
C 240.831 262.052 244.636 262.334 248.425 262.776
C 249.723 262.928 252.375 263.016 253.398 263.779
C 253.219 264.349 251.462 264.259 250.986 264.314
C 248.755 264.568 246.533 264.949 244.294 265.151
C 234.846 266.004 225.451 267.003 215.957 267.39
C 201.8 267.966 187.675 268.266 173.501 268.433
C 169.668 268.478 165.836 268.427 162.003 268.433
C 160.407 268.436 158.187 268.959 156.723 268.198
C 153.372 266.459 151.295 262.458 150.041 259.087
C 147.275 251.655 146.313 242.966 147.428 235.098 Z"
opacity="1" fill="rgb(27,104,64)" fill-rule="evenodd" />
<path d="
M 150.969 217.07
C 153 211.648 159.671 209.156 164.773 207.716
C 173.149 205.352 181.977 203.983 190.635 203.158
C 193.627 202.873 196.656 202.815 199.638 202.477
C 200.667 202.361 201.989 202.628 202.942 202.284
C 203.852 201.389 204.387 199.988 205.011 198.891
C 206.376 196.492 207.798 194.169 209.387 191.912
C 213.994 185.365 219.509 179.394 225.619 174.222
C 253.506 150.62 295.408 148.296 325.684 168.907
C 334.001 174.569 341.097 181.323 347.203 189.318
C 348.708 191.289 350.113 193.349 351.365 195.491
C 351.838 196.299 352.833 197.363 352.895 198.308
C 351.335 199.705 349.029 200.512 347.146 201.373
C 343.779 202.911 340.464 204.482 337.038 205.887
C 335.753 206.414 332.806 208.036 331.473 207.378
C 325.819 200.92 320.405 194.754 313.353 189.755
C 294.132 176.127 269.865 175.373 249.434 186.662
C 242.312 190.597 237.303 196.202 231.689 201.869
C 231.704 202.299 233.862 201.865 234.244 201.843
C 237.159 201.677 240.081 201.646 243.002 201.607
C 250.444 201.509 257.881 201.439 265.324 201.402
C 288.494 201.284 317.263 202.164 332.013 223.253
C 334.335 222.343 336.616 220.466 338.789 219.206
C 343.565 216.439 348.408 213.762 353.062 210.79
C 355.356 209.325 358.048 206.889 360.656 206.109
C 363.18 205.353 366.865 205.958 369.509 206.005
C 376.452 206.129 383.383 206.37 390.316 206.679
C 416.591 207.849 442.766 210.896 468.325 217.243
C 474.309 218.729 480.237 220.385 486.119 222.232
C 488.72 223.049 492.241 224.081 493.963 226.356
C 496.645 229.898 495.82 236.098 495.64 240.195
C 495.177 250.72 493.674 260.979 490.295 270.99
C 489.181 274.291 487.801 279.047 485.101 281.415
C 484.016 281.928 482.571 281.711 481.395 281.753
C 478.912 281.843 476.428 281.804 473.948 281.94
C 473.297 281.044 473.472 278.844 473.363 277.7
C 473.098 274.925 472.643 272.214 471.954 269.51
C 470.052 262.05 466.301 254.864 461.467 248.885
C 457.283 243.71 452.058 239.095 446.355 235.664
C 421.678 220.818 388.519 227.007 370.698 249.606
C 369.131 250.019 367.12 249.718 365.496 249.741
C 361.664 249.797 357.83 249.766 353.998 249.766
C 347.187 249.766 340.375 249.755 333.564 249.78
C 329.81 249.794 325.904 250.093 322.167 249.745
C 321.138 245.564 319.696 241.697 317.581 237.937
C 315.706 234.606 313.419 231.4 310.713 228.69
C 298.98 216.939 281.793 218 266.501 218.067
C 239.835 218.185 213.167 218.233 186.5 218.278
C 178.333 218.292 170.167 218.299 162.001 218.315
C 158.599 218.321 153.935 219.1 150.686 218.123
C 150.945 217.364 150.863 217.718 150.969 217.07 Z"
opacity="1" fill="rgb(27,102,63)" fill-rule="evenodd" />
<path d="
M 164.64 459.742
C 166.312 459.482 167.924 459.465 169.617 459.462
C 175.193 459.453 184.954 458.573 185.059 466.781
C 185.081 468.477 184.452 469.884 183.208 471.024
C 182.687 471.5 181.195 472.267 181.167 472.942
C 186.713 475.18 188.217 483.092 182.507 486.39
C 177.575 489.24 170.377 487.814 164.926 487.91
C 164.452 487.313 164.645 486.256 164.656 485.505
C 164.68 483.838 164.64 482.172 164.634 480.504
C 164.605 473.621 165.036 466.607 164.64 459.742 Z
M 168.708 463.254
C 168.793 465.769 167.858 469.32 168.747 471.702
C 171.689 471.406 175.767 472.561 178.508 471.164
C 181.276 469.753 181.493 465.45 178.891 463.791
C 176.499 462.265 171.398 463.155 168.708 463.254 Z
M 168.88 474.904
C 168.212 477.127 168.068 482.328 168.881 484.514
C 172.05 484.444 175.441 485.224 178.542 484.174
C 182.47 482.843 183.268 477.763 179.575 475.605
C 176.681 473.914 172.095 474.928 168.88 474.904 Z"
opacity="1" fill="rgb(227,194,9)" fill-rule="evenodd" />
<path d="
M 179.379 397.054
C 179.494 396.864 179.609 396.673 179.724 396.483
C 181.642 396.423 183.56 396.39 185.48 396.342
C 186.358 396.319 187.6 396.037 188.407 396.372
C 188.22 402.488 188.362 408.642 188.371 414.762
C 188.376 417.984 187.908 421.978 189.242 425
C 192.041 431.343 201.883 432.002 205.505 426.093
C 207.175 423.37 206.71 419.562 206.687 416.507
C 206.637 409.879 206.723 403.241 206.624 396.617
C 209.591 396.07 212.85 396.399 215.859 396.399
C 215.708 403.232 215.837 410.087 215.828 416.923
C 215.822 421.255 216.17 425.817 214.069 429.773
C 207.612 441.929 187.917 441.484 181.157 429.854
C 178.865 425.91 179.223 421.298 179.251 416.909
C 179.294 410.295 179.182 403.665 179.379 397.054 Z"
opacity="1" fill="rgb(29,102,65)" fill-rule="evenodd" />
<path d="
M 192.494 459.817
C 196.681 459.167 201.259 459.664 205.497 459.612
C 206.608 459.599 209.318 459.027 210.123 459.749
C 210.191 460.95 210.154 462.146 210.197 463.344
C 205.788 463.551 201.347 463.257 196.93 463.458
C 196.491 463.93 196.633 464.975 196.613 465.611
C 196.553 467.567 196.187 469.704 196.643 471.634
C 199.214 471.474 201.912 471.742 204.501 471.757
C 205.88 471.765 207.643 471.499 208.956 471.914
C 209.044 472.951 209.03 474.028 209.145 475.051
C 205.085 474.953 201.079 474.908 197.028 475.199
C 195.707 476.386 196.385 480.671 196.454 482.337
C 196.481 482.992 196.325 484.097 196.929 484.438
C 200.161 484.659 203.465 484.611 206.717 484.573
C 207.691 484.562 209.739 484.167 210.411 484.916
C 210.434 485.885 210.272 486.851 210.288 487.808
C 204.447 488.52 198.344 487.715 192.469 487.941
C 191.752 478.706 192.291 469.075 192.494 459.817 Z"
opacity="1" fill="rgb(230,197,11)" fill-rule="evenodd" />
<path d="
M 200.74 277.892
C 202.793 276.965 205.753 277.4 207.987 277.391
C 211.659 277.377 215.331 277.404 219.002 277.424
C 221.03 277.435 223.575 277.255 225.523 277.786
C 229.473 285.754 234.686 293.115 241.317 299.102
C 256.567 312.871 278.419 317.356 297.853 310.926
C 304.767 308.638 311.173 304.63 316.834 300.11
C 322.719 295.411 328.429 288.949 331.471 281.99
C 330.272 281.237 327.904 281.678 326.498 281.679
C 322.498 281.681 318.497 281.738 314.497 281.736
C 299.184 281.728 283.812 281.385 268.507 281.814
C 268.139 281.555 268.312 280.931 268.304 280.509
C 268.277 279.007 268.265 277.504 268.26 276.001
C 268.239 270.281 268.106 264.531 268.329 258.815
C 287.884 258.718 307.446 258.701 327.003 258.71
C 333.169 258.713 339.336 258.702 345.503 258.69
C 349.142 258.683 352.941 258.415 356.556 258.88
C 357.88 259.933 358.279 261.797 358.71 263.346
C 359.926 267.717 359.451 272.169 358.579 276.558
C 355.377 292.659 344.787 307.94 332.202 318.208
C 318.367 329.496 301.75 336.57 283.839 337.603
C 246.662 339.745 210.225 314.006 200.74 277.892 Z"
opacity="1" fill="rgb(27,101,63)" fill-rule="evenodd" />
<path d="
M 214.894 479.47
C 215.536 478.752 217.163 479.021 218.085 479.06
C 219.362 480.755 219.35 482.668 221.301 484.005
C 224.447 486.161 232.457 485.827 232.972 480.955
C 233.398 476.924 229.375 476.198 226.271 475.688
C 220.582 474.753 214.777 472.827 215.799 465.886
C 216.003 464.496 216.587 463.233 217.453 462.13
C 220.903 457.731 229.128 458.266 233.237 461.312
C 235.052 462.658 237.995 465.973 236.8 468.5
C 235.757 468.581 234.621 468.501 233.574 468.433
C 232.503 464.761 229.372 462.549 225.524 462.741
C 222.558 462.889 219.426 464.218 219.705 467.685
C 219.962 470.873 223.47 471.472 226.037 471.887
C 231.504 472.772 238.824 474.531 237.137 481.819
C 235.435 489.167 223.808 490.292 218.551 486.559
C 216.146 484.851 215.373 482.24 214.894 479.47 Z"
opacity="1" fill="rgb(230,193,6)" fill-rule="evenodd" />
<path d="
M 226.963 397.601
C 226.981 397.417 226.999 397.232 227.017 397.048
C 228.614 395.658 233.658 396.214 235.719 396.587
C 235.704 397.817 235.735 399.037 235.507 400.258
C 235.506 400.485 236.269 399.736 236.312 399.695
C 236.781 399.239 237.289 398.798 237.798 398.386
C 239.162 397.284 240.953 396.466 242.619 395.958
C 248.057 394.297 254.171 395.629 258.457 399.32
C 262.717 402.991 263.233 408.445 263.355 413.693
C 263.542 421.728 263.264 429.771 263.36 437.803
C 260.414 437.777 257.468 437.703 254.524 437.863
C 253.781 436.017 254.311 432.984 254.324 430.999
C 254.352 426.546 254.342 422.092 254.365 417.639
C 254.386 413.798 254.518 410.105 252.214 406.833
C 248.283 401.25 239.914 403.859 237.266 409.255
C 235.39 413.078 235.903 417.417 235.905 421.544
C 235.908 426.823 235.161 432.676 235.83 437.889
C 233.06 437.809 230.26 437.761 227.492 437.886
C 226.873 437.236 227.14 435.888 227.131 435.008
C 227.104 432.536 227.078 430.065 227.067 427.592
C 227.024 417.666 226.123 407.508 226.963 397.601 Z"
opacity="1" fill="rgb(28,102,65)" fill-rule="evenodd" />
<path d="
M 240.953 459.348
C 245.976 459.415 251.04 459.264 256.056 459.538
C 257.88 459.638 260.07 459.044 261.828 459.561
C 262.053 460.712 262.207 461.972 262.205 463.155
C 259.405 463.206 256.597 463.342 253.797 463.325
C 253.342 467.254 253.601 471.304 253.655 475.249
C 253.711 479.441 253.559 483.674 253.785 487.857
C 253.62 488.149 249.811 488.241 249.427 488.055
C 249.477 479.903 249.011 471.693 249.381 463.551
C 247.038 462.871 243.55 463.167 241.112 463.209
C 240.567 462.267 241.01 460.427 240.953 459.348 Z"
opacity="1" fill="rgb(231,198,8)" fill-rule="evenodd" />
<path d="
M 271.922 414.602
C 273.923 402.148 285.424 392.65 298.301 396.109
C 301.979 397.098 303.919 399.636 306.906 401.583
C 307.348 400.022 306.843 397.716 306.944 396.044
C 307.34 389.519 307.293 382.804 307.062 376.271
C 307.498 375.716 308.241 375.872 308.911 375.862
C 310.623 375.837 312.336 375.825 314.048 375.808
C 314.675 375.801 315.869 375.595 316.326 376.01
C 316.762 390.485 316.256 405.019 316.239 419.5
C 316.234 423.667 316.246 427.834 316.224 432.001
C 316.215 433.715 315.804 436.127 316.291 437.753
C 313.507 437.822 310.048 438.18 307.326 437.74
C 307.299 436.158 307.448 434.26 307.063 432.725
C 305.67 433.35 304.471 434.722 303.177 435.56
C 300.714 437.156 297.883 438.302 294.955 438.612
C 281.316 440.061 270.297 427.999 271.922 414.602 Z
M 281.399 414.079
C 280.962 415.778 280.956 417.744 281.234 419.471
C 281.505 421.152 282.095 422.766 282.996 424.212
C 288.928 433.735 303.621 431.235 306.312 420.39
C 308.578 411.253 299.639 401.271 290.113 404.486
C 287.509 405.364 285.441 407.063 283.791 409.224
C 282.695 410.66 281.851 412.321 281.399 414.079 Z"
opacity="1" fill="rgb(31,103,66)" fill-rule="evenodd" />
<path d="
M 279.882 460.031
C 279.894 459.845 279.906 459.66 279.917 459.474
C 281.182 459.551 282.445 459.452 283.696 459.694
C 284.219 469.068 283.137 478.571 283.849 487.917
C 282.912 488.38 280.906 487.85 279.821 487.909
C 279.027 485.429 279.724 481.61 279.767 479
C 279.87 472.687 280.016 466.344 279.882 460.031 Z"
opacity="1" fill="rgb(231,196,7)" fill-rule="evenodd" />
<path d="
M 291.874 459.365
C 294.537 457.276 297.526 460.661 298.829 462.579
C 301.803 466.956 304.666 471.416 307.722 475.733
C 308.915 477.418 310.153 480.27 311.919 481.391
C 312.187 481.17 311.977 480.134 311.972 479.821
C 311.95 478.514 312.097 477.225 312.096 475.918
C 312.094 472.102 312.01 468.308 312.083 464.491
C 312.115 462.822 311.928 460.886 312.302 459.27
C 313.53 459.18 314.924 459.058 316.119 459.374
C 316.373 465.898 316.246 472.46 316.272 478.996
C 316.283 481.898 315.985 485.003 316.332 487.878
C 314.743 487.995 313.118 487.858 311.521 487.93
C 309.953 487.208 308.693 484.396 307.781 482.983
C 305.223 479.021 302.535 475.141 299.921 471.218
C 299.338 470.344 297.049 466.032 295.979 466.769
C 295.778 473.774 295.505 480.948 295.916 487.952
C 294.663 487.978 293.41 487.813 292.159 487.813
C 291.553 484.86 291.923 481.51 291.907 478.495
C 291.874 472.123 292.042 465.733 291.874 459.365 Z"
opacity="1" fill="rgb(233,196,8)" fill-rule="evenodd" />
<path d="
M 324.923 413.085
C 326.02 408.728 327.673 404.774 330.903 401.528
C 338.348 394.046 351.065 393.346 358.997 400.451
C 362.903 403.95 365.453 408.843 366.129 414.044
C 366.393 416.081 366.072 418.157 366.322 420.169
C 355.517 420.744 344.595 419.827 333.779 420.394
C 333.072 423.031 335.864 426.248 337.651 427.857
C 343.526 433.144 352.558 431.036 357.606 425.766
C 358.292 425.727 358.69 426.343 359.22 426.723
C 360.714 427.793 362.662 428.583 363.99 429.838
C 357.357 440.267 341.506 441.737 332.228 434.099
C 326.118 429.069 323.417 420.816 324.923 413.085 Z
M 333.987 412.624
C 333.917 412.83 333.847 413.036 333.778 413.241
C 339.184 413.239 344.597 413.244 350.006 413.26
C 352.365 413.267 354.916 413.004 357.254 413.225
C 356.056 406.324 348.263 401.412 341.615 404.248
C 337.732 405.904 335.543 408.812 333.987 412.624 Z"
opacity="1" fill="rgb(27,103,64)" fill-rule="evenodd" />
<path d="
M 335.746 459.363
C 337.045 459.419 338.456 459.255 339.717 459.627
C 340.134 469.046 339.599 478.48 339.819 487.896
C 338.561 488.054 337.083 487.939 335.818 487.874
C 335.821 478.386 336.11 468.847 335.746 459.363 Z"
opacity="1" fill="rgb(229,195,9)" fill-rule="evenodd" />
<path d="
M 340.914 472.956
C 343.114 469.706 346.181 466.862 348.888 464.03
C 350.183 462.676 351.527 460.712 353.197 459.82
C 354.68 459.027 356.877 459.192 358.463 459.55
C 358.096 461.214 355.544 462.699 354.336 463.827
C 351.144 466.807 348.441 470.166 345.619 473.474
C 346.178 475.157 348.29 476.64 349.514 477.917
C 352.79 481.335 355.986 484.885 359.576 487.979
C 357.931 488.026 355.172 488.595 353.67 487.792
C 352.507 487.169 351.574 485.883 350.664 484.955
C 348.741 482.993 346.809 481.036 344.864 479.096
C 343.404 477.639 340.12 475.324 340.914 472.956 Z"
opacity="1" fill="rgb(231,197,10)" fill-rule="evenodd" />
<path d="
M 364.476 464.115
C 364.666 462.772 364.562 461.379 364.639 460.023
C 365.742 458.927 368.049 459.47 369.506 459.482
C 373.6 459.517 377.872 459.005 381.936 459.528
C 382.053 460.751 382.308 462.097 381.891 463.294
C 377.364 463.252 372.817 463.477 368.297 463.388
C 367.839 466.065 368.009 469.26 368.259 471.961
C 372.498 471.87 376.987 472.457 381.201 472.012
C 381.606 473.044 380.927 474.461 381.136 475.553
C 377.175 474.602 372.343 475.496 368.284 475.397
C 368.086 478.478 368.28 481.554 368.286 484.637
C 372.842 484.199 378.135 484.386 382.71 484.69
C 382.708 485.734 382.547 487.026 382.777 488.032
C 378.419 488.314 373.836 487.947 369.45 487.94
C 368.142 487.937 365.657 488.379 364.56 487.751
C 363.793 480.134 363.994 471.759 364.476 464.115 Z"
opacity="1" fill="rgb(229,193,8)" fill-rule="evenodd" />
<path d="
M 365.98 283.61
C 367.276 274.389 369.062 266.318 374.239 258.375
C 388.779 236.065 419.605 229.069 442.373 242.693
C 450.216 247.386 455.971 253.98 460.447 261.872
C 461.741 264.153 462.845 266.659 463.575 269.181
C 463.778 269.883 463.794 271.718 464.289 272.16
C 458.266 271.989 452.232 272.147 446.207 271.969
C 444.206 271.911 441.849 272.316 439.914 271.887
C 438.716 270.694 437.876 269.184 436.689 267.967
C 433.682 264.883 429.831 262.228 425.745 260.832
C 408.526 254.946 389.008 267.696 389.178 286.345
C 389.205 289.263 389.618 292.178 390.571 294.945
C 391.671 298.144 393.351 300.947 395.545 303.51
C 397.976 306.351 401.101 308.609 404.489 310.168
C 408.083 311.823 411.886 312.79 415.849 312.908
C 420.383 313.042 424.902 311.943 428.955 309.927
C 432.861 307.984 436.208 305.006 438.794 301.51
C 439.879 300.043 440.504 298.073 441.671 296.72
C 445.44 296.302 449.413 296.64 453.205 296.61
C 457.177 296.579 461.227 296.18 465.176 296.762
C 465.427 297.74 464.653 299.018 464.375 299.95
C 463.553 302.71 462.483 305.372 461.174 307.935
C 455.264 319.51 444.553 329.574 431.938 333.322
C 420.089 336.843 408.041 336.628 396.476 331.842
C 377.727 324.083 365.009 303.835 365.98 283.61 Z"
opacity="1" fill="rgb(228,192,4)" fill-rule="evenodd" />
<path d="
M 371.92 415.101
C 373.006 409.096 375.497 403.46 380.384 399.569
C 387.794 393.669 400.767 393.611 406.999 401.455
C 407.57 399.641 406.918 396.437 406.918 394.495
C 406.916 388.441 406.507 382.276 407.059 376.244
C 409.043 375.41 411.908 375.905 414.045 375.834
C 414.738 375.811 415.755 375.62 416.362 375.961
C 415.708 388.245 416.282 400.698 416.258 413
C 416.248 418.5 416.25 423.999 416.221 429.499
C 416.207 432.239 415.938 435.145 416.219 437.867
C 413.33 437.845 410.372 437.492 407.497 437.846
C 406.815 436.717 407.376 434.072 407.217 432.704
C 403.087 435.282 399.577 438.181 394.487 438.609
C 381.618 439.692 370.297 428.026 371.92 415.101 Z
M 381.371 415.088
C 381.081 417.035 381.155 419.164 381.734 421.05
C 385.634 433.752 404.559 432.536 406.667 419.397
C 408.406 408.557 395.739 399.532 386.485 406.465
C 385.133 407.478 384.004 408.819 383.135 410.259
C 382.242 411.739 381.626 413.372 381.371 415.088 Z"
opacity="1" fill="rgb(30,103,67)" fill-rule="evenodd" />
<path d="
M 388.435 460.062
C 388.49 459.839 388.545 459.615 388.599 459.392
C 392.572 458.481 394.356 460.891 396.43 463.856
C 399.394 468.094 402.094 472.519 404.992 476.802
C 405.777 477.962 407.093 480.895 408.397 481.434
C 409.11 479.669 408.469 476.396 408.457 474.493
C 408.427 469.541 408.993 464.289 408.494 459.377
C 409.596 459.282 411.407 458.929 412.42 459.458
C 412.428 466.023 412.161 472.669 412.548 479.225
C 412.661 481.13 412.591 483.051 412.609 484.958
C 412.616 485.705 412.78 487.092 412.357 487.751
C 410.94 487.859 409.507 487.931 408.086 487.907
C 406.248 486.609 405.057 484.016 403.845 482.162
C 401.392 478.409 398.775 474.761 396.335 471
C 395.484 469.688 394.656 468.108 393.61 466.949
C 393.278 466.581 393.01 465.655 392.571 465.885
C 392.222 466.069 392.554 466.674 392.541 467.068
C 392.498 468.429 392.42 469.781 392.435 471.145
C 392.48 475.181 392.298 479.232 392.518 483.264
C 392.579 484.379 393.152 487.088 392.273 487.922
C 391.054 487.901 389.838 487.834 388.619 487.833
C 388.042 482.473 388.532 476.966 388.545 471.579
C 388.555 467.803 387.993 463.809 388.435 460.062 Z"
opacity="1" fill="rgb(232,192,7)" fill-rule="evenodd" />
<path d="
M 416.434 459.746
C 417.853 459.641 419.21 459.441 420.635 459.578
C 421.983 460.273 422.859 462.123 423.64 463.37
C 425.668 466.606 427.626 469.85 429.274 473.301
C 430.202 472.942 431.057 470.544 431.614 469.705
C 433.897 466.263 436.116 462.769 438.388 459.321
C 439.866 458.982 441.525 459.29 443.012 459.492
C 440.581 463.739 437.457 467.599 434.781 471.692
C 433.722 473.311 432.2 474.864 431.534 476.704
C 431.051 478.038 431.281 479.708 431.311 481.102
C 431.36 483.366 431.277 485.646 431.335 487.901
C 430.086 487.957 428.805 487.919 427.556 487.87
C 427.087 484.257 428.321 480.059 427.352 476.56
C 426.831 474.678 424.837 472.536 423.726 470.925
C 421.196 467.255 418.942 463.422 416.434 459.746 Z"
opacity="1" fill="rgb(230,196,8)" fill-rule="evenodd" />
<path d="
M 442.403 402.09
C 443.758 395.839 446.141 390.109 450.597 385.391
C 459.84 375.605 475.588 372.53 487.638 378.766
C 490.869 380.438 495.562 383.173 497.496 386.374
C 496.017 388.02 494.328 389.511 492.623 390.916
C 492.221 391.247 491.171 392.436 490.662 392.335
C 487.544 389.072 483.331 386.368 478.91 385.363
C 475.425 384.57 471.879 384.524 468.39 385.347
C 465.299 386.076 462.427 387.673 459.997 389.695
C 453.901 394.767 450.545 402.629 451.754 410.56
C 453.775 423.819 467.683 433.377 480.722 428.786
C 484.31 427.523 487.476 425.388 490.126 422.678
C 490.728 422.884 491.004 423.624 491.406 424.083
C 492.476 425.303 493.559 426.501 494.569 427.773
C 494.941 428.241 495.877 429.141 495.699 429.763
C 493.588 432.236 490.9 433.954 488.014 435.405
C 475.211 441.838 459.735 438.995 449.867 428.678
C 443.35 421.864 440.85 411.281 442.403 402.09 Z"
opacity="1" fill="rgb(31,102,67)" fill-rule="evenodd" />
<path d="
M 442.368 487.685
C 444.98 482.758 446.763 477.074 448.931 471.913
C 450.681 467.745 453.073 463.593 454.409 459.284
C 455.76 459.341 457.111 459.431 458.463 459.504
C 460.74 462.031 461.746 466.661 463.023 469.784
C 465.496 475.837 468.769 481.779 470.791 487.977
C 470.812 488.04 469.461 487.941 469.283 487.935
C 468.313 487.901 467.105 488.102 466.225 487.659
C 465.174 486.018 464.555 484.005 463.812 482.206
C 462.864 481.53 461.147 481.861 460.009 481.832
C 456.516 481.741 453.017 482.002 449.528 481.891
C 447.883 483.431 448.005 486.376 446.497 487.965
C 445.104 487.917 443.716 488.076 442.331 488.02
C 442.343 487.908 442.355 487.796 442.368 487.685 Z
M 450.89 477.573
C 450.814 477.8 450.737 478.027 450.66 478.254
C 453.272 478.272 455.892 478.374 458.509 478.352
C 459.625 478.342 461.246 477.991 462.293 478.316
C 460.539 473.726 458.202 469.327 456.348 464.772
C 454.176 468.816 452.551 473.301 450.89 477.573 Z"
opacity="1" fill="rgb(230,199,12)" fill-rule="evenodd" />
<path d="
M 499.485 416.615
C 499.84 413.528 500.296 410.751 501.592 407.884
C 505.536 399.156 515.033 394.169 524.465 395.686
C 527.42 396.162 529.667 397.355 532.057 399.107
C 532.489 399.424 534.9 401.732 535.156 401.56
C 535.385 399.875 535.304 398.117 535.421 396.417
C 538.256 396.292 541.187 396.235 544.015 396.486
C 544.189 406.138 543.933 415.842 543.957 425.508
C 543.967 429.588 543.719 433.754 544.072 437.82
C 542.068 437.915 540.013 437.73 538.006 437.681
C 537.277 437.663 535.994 438.001 535.363 437.72
C 535.423 436.028 535.352 434.312 535.238 432.623
C 531.108 435.101 527.991 437.968 522.954 438.61
C 510.015 440.262 499.12 429.429 499.485 416.615 Z
M 508.938 415.611
C 508.732 417.627 508.951 419.683 509.611 421.605
C 511.883 428.226 519.484 432.246 526.173 429.688
C 529.063 428.583 531.283 426.29 532.844 423.675
C 533.783 422.103 534.413 420.294 534.57 418.466
C 535.442 408.288 523.766 400.207 514.839 405.95
C 513.005 407.13 511.578 408.806 510.505 410.691
C 509.661 412.174 509.111 413.908 508.938 415.611 Z"
opacity="1" fill="rgb(29,101,65)" fill-rule="evenodd" />
<path d="
M 555.602 396.691
C 557.753 396.623 559.902 396.575 562.055 396.586
C 562.791 396.59 563.868 396.481 564.441 396.968
C 564.413 398.087 564.525 399.203 564.419 400.32
C 564.474 400.612 565.67 399.234 565.87 399.047
C 566.898 398.085 568.061 397.296 569.308 396.64
C 572.019 395.213 575.493 395.093 578.448 395.722
C 579.369 395.919 581.164 396.394 581.495 397.398
C 580.855 400.01 578.78 403.181 577.295 405.414
C 576.279 405.014 575.784 404.261 574.617 404.104
C 569.495 403.418 566.45 407.531 565.42 412.093
C 564.735 415.127 564.963 418.72 564.952 421.822
C 564.933 427.198 564.947 432.569 564.855 437.944
C 561.88 437.991 558.906 437.808 555.933 437.934
C 555.414 437.228 555.701 435.87 555.707 435.004
C 555.724 432.337 555.695 429.67 555.695 427.003
C 555.695 416.924 555.947 406.759 555.602 396.691 Z"
opacity="1" fill="rgb(28,102,65)" fill-rule="evenodd" />
<path d="
M 584.229 431.987
C 586.245 430.291 587.962 428.23 589.968 426.512
C 591.948 429.657 596.265 431.232 599.829 430.679
C 602.476 430.269 604.772 428.323 604.301 425.435
C 603.725 421.903 598.536 421.501 595.823 420.604
C 589.865 418.635 584.249 414.33 584.959 407.282
C 586.023 396.734 598.152 392.926 606.69 397.369
C 608.692 398.411 611.499 400.28 612.394 402.458
C 611.469 404.012 609.267 405.223 607.914 406.443
C 607.517 406.801 606.72 407.651 606.177 407.421
C 604.285 405.108 601.462 403.357 598.393 403.585
C 595.379 403.809 592.721 406.55 594.035 409.623
C 595.399 412.809 600.636 413.076 603.511 413.962
C 610.848 416.222 615.643 422.417 612.645 430.188
C 609.436 438.506 598.532 440.819 590.962 437.394
C 589.009 436.511 587.132 435.338 585.637 433.792
C 585.097 433.235 584.3 432.746 584.229 431.987 Z"
opacity="1" fill="rgb(28,103,66)" fill-rule="evenodd" />

</svg>